<svg xmlns="http://www.w3.org/2000/svg" width="48" height="48" viewBox="0 0 48 48" shape-rendering="crispEdges" role="img" aria-label="hud zoro crest"><rect x="17" y="1" width="14" height="1" fill="#070c16" fill-opacity="0.95"/><rect x="14" y="2" width="20" height="1" fill="#070c16" fill-opacity="0.95"/><rect x="12" y="3" width="24" height="1" fill="#070c16" fill-opacity="0.95"/><rect x="11" y="4" width="26" height="1" fill="#070c16" fill-opacity="0.95"/><rect x="9" y="5" width="30" height="1" fill="#070c16" fill-opacity="0.95"/><rect x="8" y="6" width="32" height="1" fill="#070c16" fill-opacity="0.95"/><rect x="7" y="7" width="34" height="1" fill="#070c16" fill-opacity="0.95"/><rect x="6" y="8" width="36" height="1" fill="#070c16" fill-opacity="0.95"/><rect x="5" y="9" width="38" height="1" fill="#070c16" fill-opacity="0.95"/><rect x="5" y="10" width="38" height="1" fill="#070c16" fill-opacity="0.95"/><rect x="4" y="11" width="40" height="1" fill="#070c16" fill-opacity="0.95"/><rect x="3" y="12" width="42" height="1" fill="#070c16" fill-opacity="0.95"/><rect x="3" y="13" width="42" height="1" fill="#070c16" fill-opacity="0.95"/><rect x="2" y="14" width="44" height="1" fill="#070c16" fill-opacity="0.95"/><rect x="2" y="15" width="44" height="1" fill="#070c16" fill-opacity="0.95"/><rect x="1" y="16" width="46" height="1" fill="#070c16" fill-opacity="0.95"/><rect x="1" y="17" width="46" height="1" fill="#070c16" fill-opacity="0.95"/><rect x="1" y="18" width="46" height="1" fill="#070c16" fill-opacity="0.95"/><rect x="1" y="19" width="46" height="1" fill="#070c16" fill-opacity="0.95"/><rect x="0" y="20" width="48" height="1" fill="#070c16" fill-opacity="0.95"/><rect x="0" y="21" width="48" height="1" fill="#070c16" fill-opacity="0.95"/><rect x="0" y="22" width="48" height="1" fill="#070c16" fill-opacity="0.95"/><rect x="0" y="23" width="48" height="1" fill="#070c16" fill-opacity="0.95"/><rect x="0" y="24" width="48" height="1" fill="#070c16" fill-opacity="0.95"/><rect x="0" y="25" width="48" height="1" fill="#070c16" fill-opacity="0.95"/><rect x="0" y="26" width="48" height="1" fill="#070c16" fill-opacity="0.95"/><rect x="0" y="27" width="48" height="1" fill="#070c16" fill-opacity="0.95"/><rect x="0" y="28" width="48" height="1" fill="#070c16" fill-opacity="0.95"/><rect x="1" y="29" width="46" height="1" fill="#070c16" fill-opacity="0.95"/><rect x="1" y="30" width="46" height="1" fill="#070c16" fill-opacity="0.95"/><rect x="1" y="31" width="46" height="1" fill="#070c16" fill-opacity="0.95"/><rect x="1" y="32" width="46" height="1" fill="#070c16" fill-opacity="0.95"/><rect x="2" y="33" width="44" height="1" fill="#070c16" fill-opacity="0.95"/><rect x="2" y="34" width="44" height="1" fill="#070c16" fill-opacity="0.95"/><rect x="3" y="35" width="42" height="1" fill="#070c16" fill-opacity="0.95"/><rect x="3" y="36" width="42" height="1" fill="#070c16" fill-opacity="0.95"/><rect x="4" y="37" width="40" height="1" fill="#070c16" fill-opacity="0.95"/><rect x="5" y="38" width="38" height="1" fill="#070c16" fill-opacity="0.95"/><rect x="5" y="39" width="38" height="1" fill="#070c16" fill-opacity="0.95"/><rect x="6" y="40" width="36" height="1" fill="#070c16" fill-opacity="0.95"/><rect x="7" y="41" width="34" height="1" fill="#070c16" fill-opacity="0.95"/><rect x="8" y="42" width="32" height="1" fill="#070c16" fill-opacity="0.95"/><rect x="9" y="43" width="30" height="1" fill="#070c16" fill-opacity="0.95"/><rect x="11" y="44" width="26" height="1" fill="#070c16" fill-opacity="0.95"/><rect x="12" y="45" width="24" height="1" fill="#070c16" fill-opacity="0.95"/><rect x="14" y="46" width="20" height="1" fill="#070c16" fill-opacity="0.95"/><rect x="17" y="47" width="14" height="1" fill="#070c16" fill-opacity="0.95"/><rect x="17" y="3" width="14" height="1" fill="#a2743c"/><rect x="15" y="4" width="18" height="1" fill="#a2743c"/><rect x="13" y="5" width="22" height="1" fill="#a2743c"/><rect x="11" y="6" width="26" height="1" fill="#a2743c"/><rect x="10" y="7" width="28" height="1" fill="#a2743c"/><rect x="9" y="8" width="30" height="1" fill="#a2743c"/><rect x="8" y="9" width="32" height="1" fill="#a2743c"/><rect x="7" y="10" width="34" height="1" fill="#a2743c"/><rect x="6" y="11" width="36" height="1" fill="#a2743c"/><rect x="6" y="12" width="36" height="1" fill="#a2743c"/><rect x="5" y="13" width="38" height="1" fill="#a2743c"/><rect x="4" y="14" width="40" height="1" fill="#a2743c"/><rect x="4" y="15" width="40" height="1" fill="#a2743c"/><rect x="4" y="16" width="40" height="1" fill="#a2743c"/><rect x="3" y="17" width="42" height="1" fill="#a2743c"/><rect x="3" y="18" width="42" height="1" fill="#a2743c"/><rect x="3" y="19" width="42" height="1" fill="#a2743c"/><rect x="2" y="20" width="44" height="1" fill="#a2743c"/><rect x="2" y="21" width="44" height="1" fill="#a2743c"/><rect x="2" y="22" width="44" height="1" fill="#a2743c"/><rect x="2" y="23" width="44" height="1" fill="#a2743c"/><rect x="2" y="24" width="44" height="1" fill="#a2743c"/><rect x="2" y="25" width="44" height="1" fill="#a2743c"/><rect x="2" y="26" width="44" height="1" fill="#a2743c"/><rect x="2" y="27" width="44" height="1" fill="#a2743c"/><rect x="2" y="28" width="44" height="1" fill="#a2743c"/><rect x="3" y="29" width="42" height="1" fill="#a2743c"/><rect x="3" y="30" width="42" height="1" fill="#a2743c"/><rect x="3" y="31" width="42" height="1" fill="#a2743c"/><rect x="4" y="32" width="40" height="1" fill="#a2743c"/><rect x="4" y="33" width="40" height="1" fill="#a2743c"/><rect x="4" y="34" width="40" height="1" fill="#a2743c"/><rect x="5" y="35" width="38" height="1" fill="#a2743c"/><rect x="6" y="36" width="36" height="1" fill="#a2743c"/><rect x="6" y="37" width="36" height="1" fill="#a2743c"/><rect x="7" y="38" width="34" height="1" fill="#a2743c"/><rect x="8" y="39" width="32" height="1" fill="#a2743c"/><rect x="9" y="40" width="30" height="1" fill="#a2743c"/><rect x="10" y="41" width="28" height="1" fill="#a2743c"/><rect x="11" y="42" width="26" height="1" fill="#a2743c"/><rect x="13" y="43" width="22" height="1" fill="#a2743c"/><rect x="15" y="44" width="18" height="1" fill="#a2743c"/><rect x="17" y="45" width="14" height="1" fill="#a2743c"/><rect x="18" y="5" width="12" height="1" fill="#17263f"/><rect x="15" y="6" width="18" height="1" fill="#17263f"/><rect x="13" y="7" width="22" height="1" fill="#17263f"/><rect x="12" y="8" width="24" height="1" fill="#17263f"/><rect x="11" y="9" width="26" height="1" fill="#17263f"/><rect x="10" y="10" width="28" height="1" fill="#17263f"/><rect x="9" y="11" width="30" height="1" fill="#17263f"/><rect x="8" y="12" width="32" height="1" fill="#17263f"/><rect x="7" y="13" width="34" height="1" fill="#17263f"/><rect x="7" y="14" width="34" height="1" fill="#17263f"/><rect x="6" y="15" width="36" height="1" fill="#17263f"/><rect x="6" y="16" width="36" height="1" fill="#17263f"/><rect x="5" y="17" width="38" height="1" fill="#17263f"/><rect x="5" y="18" width="38" height="1" fill="#17263f"/><rect x="5" y="19" width="38" height="1" fill="#17263f"/><rect x="4" y="20" width="40" height="1" fill="#17263f"/><rect x="4" y="21" width="40" height="1" fill="#17263f"/><rect x="4" y="22" width="40" height="1" fill="#17263f"/><rect x="4" y="23" width="40" height="1" fill="#17263f"/><rect x="4" y="24" width="40" height="1" fill="#17263f"/><rect x="4" y="25" width="40" height="1" fill="#17263f"/><rect x="4" y="26" width="40" height="1" fill="#17263f"/><rect x="4" y="27" width="40" height="1" fill="#17263f"/><rect x="4" y="28" width="40" height="1" fill="#17263f"/><rect x="5" y="29" width="38" height="1" fill="#17263f"/><rect x="5" y="30" width="38" height="1" fill="#17263f"/><rect x="5" y="31" width="38" height="1" fill="#17263f"/><rect x="6" y="32" width="36" height="1" fill="#17263f"/><rect x="6" y="33" width="36" height="1" fill="#17263f"/><rect x="7" y="34" width="34" height="1" fill="#17263f"/><rect x="7" y="35" width="34" height="1" fill="#17263f"/><rect x="8" y="36" width="32" height="1" fill="#17263f"/><rect x="9" y="37" width="30" height="1" fill="#17263f"/><rect x="10" y="38" width="28" height="1" fill="#17263f"/><rect x="11" y="39" width="26" height="1" fill="#17263f"/><rect x="12" y="40" width="24" height="1" fill="#17263f"/><rect x="13" y="41" width="22" height="1" fill="#17263f"/><rect x="15" y="42" width="18" height="1" fill="#17263f"/><rect x="18" y="43" width="12" height="1" fill="#17263f"/><rect x="13" y="7" width="5" height="1" fill="#2b1a0c"/><rect x="12" y="8" width="2" height="1" fill="#2b1a0c"/><rect x="14" y="8" width="3" height="1" fill="#f2d183"/><rect x="17" y="8" width="2" height="1" fill="#2b1a0c"/><rect x="11" y="9" width="2" height="1" fill="#2b1a0c"/><rect x="13" y="9" width="2" height="1" fill="#f2d183"/><rect x="16" y="9" width="2" height="1" fill="#d9a441"/><rect x="18" y="9" width="2" height="1" fill="#2b1a0c"/><rect x="11" y="10" width="1" height="1" fill="#2b1a0c"/><rect x="12" y="10" width="2" height="1" fill="#f2d183"/><rect x="17" y="10" width="1" height="1" fill="#d9a441"/><rect x="18" y="10" width="1" height="1" fill="#7d4f1e"/><rect x="19" y="10" width="1" height="1" fill="#2b1a0c"/><rect x="22" y="10" width="5" height="1" fill="#2b1a0c"/><rect x="11" y="11" width="1" height="1" fill="#2b1a0c"/><rect x="12" y="11" width="1" height="1" fill="#f2d183"/><rect x="18" y="11" width="1" height="1" fill="#7d4f1e"/><rect x="19" y="11" width="1" height="1" fill="#2b1a0c"/><rect x="21" y="11" width="2" height="1" fill="#2b1a0c"/><rect x="23" y="11" width="3" height="1" fill="#f2d183"/><rect x="26" y="11" width="2" height="1" fill="#2b1a0c"/><rect x="11" y="12" width="1" height="1" fill="#2b1a0c"/><rect x="12" y="12" width="1" height="1" fill="#f2d183"/><rect x="13" y="12" width="1" height="1" fill="#d9a441"/><rect x="17" y="12" width="2" height="1" fill="#f2d183"/><rect x="19" y="12" width="3" height="1" fill="#2b1a0c"/><rect x="22" y="12" width="2" height="1" fill="#f2d183"/><rect x="25" y="12" width="2" height="1" fill="#d9a441"/><rect x="27" y="12" width="2" height="1" fill="#2b1a0c"/><rect x="11" y="13" width="2" height="1" fill="#2b1a0c"/><rect x="13" y="13" width="2" height="1" fill="#d9a441"/><rect x="16" y="13" width="2" height="1" fill="#f2d183"/><rect x="18" y="13" width="3" height="1" fill="#2b1a0c"/><rect x="21" y="13" width="2" height="1" fill="#f2d183"/><rect x="26" y="13" width="1" height="1" fill="#d9a441"/><rect x="27" y="13" width="1" height="1" fill="#7d4f1e"/><rect x="28" y="13" width="1" height="1" fill="#2b1a0c"/><rect x="31" y="13" width="5" height="1" fill="#2b1a0c"/><rect x="12" y="14" width="2" height="1" fill="#2b1a0c"/><rect x="14" y="14" width="1" height="1" fill="#d9a441"/><rect x="15" y="14" width="1" height="1" fill="#f2d183"/><rect x="16" y="14" width="1" height="1" fill="#7d4f1e"/><rect x="17" y="14" width="2" height="1" fill="#2b1a0c"/><rect x="20" y="14" width="1" height="1" fill="#2b1a0c"/><rect x="21" y="14" width="1" height="1" fill="#f2d183"/><rect x="27" y="14" width="1" height="1" fill="#7d4f1e"/><rect x="28" y="14" width="1" height="1" fill="#2b1a0c"/><rect x="30" y="14" width="2" height="1" fill="#2b1a0c"/><rect x="32" y="14" width="3" height="1" fill="#f2d183"/><rect x="35" y="14" width="2" height="1" fill="#2b1a0c"/><rect x="13" y="15" width="1" height="1" fill="#2b1a0c"/><rect x="14" y="15" width="1" height="1" fill="#d9a441"/><rect x="15" y="15" width="1" height="1" fill="#f2d183"/><rect x="16" y="15" width="1" height="1" fill="#7d4f1e"/><rect x="17" y="15" width="1" height="1" fill="#2b1a0c"/><rect x="20" y="15" width="1" height="1" fill="#2b1a0c"/><rect x="21" y="15" width="1" height="1" fill="#f2d183"/><rect x="22" y="15" width="1" height="1" fill="#d9a441"/><rect x="26" y="15" width="2" height="1" fill="#f2d183"/><rect x="28" y="15" width="3" height="1" fill="#2b1a0c"/><rect x="31" y="15" width="2" height="1" fill="#f2d183"/><rect x="34" y="15" width="2" height="1" fill="#d9a441"/><rect x="36" y="15" width="2" height="1" fill="#2b1a0c"/><rect x="13" y="16" width="1" height="1" fill="#2b1a0c"/><rect x="14" y="16" width="1" height="1" fill="#d9a441"/><rect x="15" y="16" width="1" height="1" fill="#f2d183"/><rect x="16" y="16" width="1" height="1" fill="#7d4f1e"/><rect x="17" y="16" width="1" height="1" fill="#2b1a0c"/><rect x="20" y="16" width="2" height="1" fill="#2b1a0c"/><rect x="22" y="16" width="2" height="1" fill="#d9a441"/><rect x="25" y="16" width="2" height="1" fill="#f2d183"/><rect x="27" y="16" width="3" height="1" fill="#2b1a0c"/><rect x="30" y="16" width="2" height="1" fill="#f2d183"/><rect x="35" y="16" width="1" height="1" fill="#d9a441"/><rect x="36" y="16" width="1" height="1" fill="#7d4f1e"/><rect x="37" y="16" width="1" height="1" fill="#2b1a0c"/><rect x="13" y="17" width="1" height="1" fill="#2b1a0c"/><rect x="14" y="17" width="1" height="1" fill="#d9a441"/><rect x="15" y="17" width="1" height="1" fill="#f2d183"/><rect x="16" y="17" width="1" height="1" fill="#7d4f1e"/><rect x="17" y="17" width="1" height="1" fill="#2b1a0c"/><rect x="21" y="17" width="2" height="1" fill="#2b1a0c"/><rect x="23" y="17" width="1" height="1" fill="#d9a441"/><rect x="24" y="17" width="1" height="1" fill="#f2d183"/><rect x="25" y="17" width="1" height="1" fill="#7d4f1e"/><rect x="26" y="17" width="2" height="1" fill="#2b1a0c"/><rect x="29" y="17" width="1" height="1" fill="#2b1a0c"/><rect x="30" y="17" width="1" height="1" fill="#f2d183"/><rect x="36" y="17" width="1" height="1" fill="#7d4f1e"/><rect x="37" y="17" width="1" height="1" fill="#2b1a0c"/><rect x="13" y="18" width="1" height="1" fill="#2b1a0c"/><rect x="14" y="18" width="1" height="1" fill="#d9a441"/><rect x="15" y="18" width="1" height="1" fill="#f2d183"/><rect x="16" y="18" width="1" height="1" fill="#7d4f1e"/><rect x="17" y="18" width="1" height="1" fill="#2b1a0c"/><rect x="22" y="18" width="1" height="1" fill="#2b1a0c"/><rect x="23" y="18" width="1" height="1" fill="#d9a441"/><rect x="24" y="18" width="1" height="1" fill="#f2d183"/><rect x="25" y="18" width="1" height="1" fill="#7d4f1e"/><rect x="26" y="18" width="1" height="1" fill="#2b1a0c"/><rect x="29" y="18" width="1" height="1" fill="#2b1a0c"/><rect x="30" y="18" width="1" height="1" fill="#f2d183"/><rect x="31" y="18" width="1" height="1" fill="#d9a441"/><rect x="35" y="18" width="2" height="1" fill="#f2d183"/><rect x="37" y="18" width="1" height="1" fill="#2b1a0c"/><rect x="13" y="19" width="1" height="1" fill="#2b1a0c"/><rect x="14" y="19" width="1" height="1" fill="#d9a441"/><rect x="15" y="19" width="1" height="1" fill="#f2d183"/><rect x="16" y="19" width="1" height="1" fill="#7d4f1e"/><rect x="17" y="19" width="1" height="1" fill="#2b1a0c"/><rect x="22" y="19" width="1" height="1" fill="#2b1a0c"/><rect x="23" y="19" width="1" height="1" fill="#d9a441"/><rect x="24" y="19" width="1" height="1" fill="#f2d183"/><rect x="25" y="19" width="1" height="1" fill="#7d4f1e"/><rect x="26" y="19" width="1" height="1" fill="#2b1a0c"/><rect x="29" y="19" width="2" height="1" fill="#2b1a0c"/><rect x="31" y="19" width="2" height="1" fill="#d9a441"/><rect x="34" y="19" width="2" height="1" fill="#f2d183"/><rect x="36" y="19" width="2" height="1" fill="#2b1a0c"/><rect x="13" y="20" width="1" height="1" fill="#2b1a0c"/><rect x="14" y="20" width="1" height="1" fill="#d9a441"/><rect x="15" y="20" width="1" height="1" fill="#f2d183"/><rect x="16" y="20" width="1" height="1" fill="#7d4f1e"/><rect x="17" y="20" width="1" height="1" fill="#2b1a0c"/><rect x="22" y="20" width="1" height="1" fill="#2b1a0c"/><rect x="23" y="20" width="1" height="1" fill="#d9a441"/><rect x="24" y="20" width="1" height="1" fill="#f2d183"/><rect x="25" y="20" width="1" height="1" fill="#7d4f1e"/><rect x="26" y="20" width="1" height="1" fill="#2b1a0c"/><rect x="30" y="20" width="2" height="1" fill="#2b1a0c"/><rect x="32" y="20" width="1" height="1" fill="#d9a441"/><rect x="33" y="20" width="1" height="1" fill="#f2d183"/><rect x="34" y="20" width="1" height="1" fill="#7d4f1e"/><rect x="35" y="20" width="2" height="1" fill="#2b1a0c"/><rect x="13" y="21" width="1" height="1" fill="#2b1a0c"/><rect x="14" y="21" width="1" height="1" fill="#d9a441"/><rect x="15" y="21" width="1" height="1" fill="#f2d183"/><rect x="16" y="21" width="1" height="1" fill="#7d4f1e"/><rect x="17" y="21" width="1" height="1" fill="#2b1a0c"/><rect x="22" y="21" width="1" height="1" fill="#2b1a0c"/><rect x="23" y="21" width="1" height="1" fill="#d9a441"/><rect x="24" y="21" width="1" height="1" fill="#f2d183"/><rect x="25" y="21" width="1" height="1" fill="#7d4f1e"/><rect x="26" y="21" width="1" height="1" fill="#2b1a0c"/><rect x="31" y="21" width="1" height="1" fill="#2b1a0c"/><rect x="32" y="21" width="1" height="1" fill="#d9a441"/><rect x="33" y="21" width="1" height="1" fill="#f2d183"/><rect x="34" y="21" width="1" height="1" fill="#7d4f1e"/><rect x="35" y="21" width="1" height="1" fill="#2b1a0c"/><rect x="12" y="22" width="2" height="1" fill="#2b1a0c"/><rect x="14" y="22" width="1" height="1" fill="#d9a441"/><rect x="15" y="22" width="1" height="1" fill="#f2d183"/><rect x="16" y="22" width="1" height="1" fill="#7d4f1e"/><rect x="17" y="22" width="2" height="1" fill="#2b1a0c"/><rect x="22" y="22" width="1" height="1" fill="#2b1a0c"/><rect x="23" y="22" width="1" height="1" fill="#d9a441"/><rect x="24" y="22" width="1" height="1" fill="#f2d183"/><rect x="25" y="22" width="1" height="1" fill="#7d4f1e"/><rect x="26" y="22" width="1" height="1" fill="#2b1a0c"/><rect x="31" y="22" width="1" height="1" fill="#2b1a0c"/><rect x="32" y="22" width="1" height="1" fill="#d9a441"/><rect x="33" y="22" width="1" height="1" fill="#f2d183"/><rect x="34" y="22" width="1" height="1" fill="#7d4f1e"/><rect x="35" y="22" width="1" height="1" fill="#2b1a0c"/><rect x="12" y="23" width="1" height="1" fill="#2b1a0c"/><rect x="13" y="23" width="1" height="1" fill="#d9a441"/><rect x="14" y="23" width="1" height="1" fill="#f2d183"/><rect x="15" y="23" width="2" height="1" fill="#d9a441"/><rect x="17" y="23" width="1" height="1" fill="#7d4f1e"/><rect x="18" y="23" width="1" height="1" fill="#2b1a0c"/><rect x="22" y="23" width="1" height="1" fill="#2b1a0c"/><rect x="23" y="23" width="1" height="1" fill="#d9a441"/><rect x="24" y="23" width="1" height="1" fill="#f2d183"/><rect x="25" y="23" width="1" height="1" fill="#7d4f1e"/><rect x="26" y="23" width="1" height="1" fill="#2b1a0c"/><rect x="31" y="23" width="1" height="1" fill="#2b1a0c"/><rect x="32" y="23" width="1" height="1" fill="#d9a441"/><rect x="33" y="23" width="1" height="1" fill="#f2d183"/><rect x="34" y="23" width="1" height="1" fill="#7d4f1e"/><rect x="35" y="23" width="1" height="1" fill="#2b1a0c"/><rect x="12" y="24" width="1" height="1" fill="#2b1a0c"/><rect x="13" y="24" width="1" height="1" fill="#d9a441"/><rect x="14" y="24" width="1" height="1" fill="#f2d183"/><rect x="15" y="24" width="2" height="1" fill="#d9a441"/><rect x="17" y="24" width="1" height="1" fill="#7d4f1e"/><rect x="18" y="24" width="1" height="1" fill="#2b1a0c"/><rect x="22" y="24" width="1" height="1" fill="#2b1a0c"/><rect x="23" y="24" width="1" height="1" fill="#d9a441"/><rect x="24" y="24" width="1" height="1" fill="#f2d183"/><rect x="25" y="24" width="1" height="1" fill="#7d4f1e"/><rect x="26" y="24" width="1" height="1" fill="#2b1a0c"/><rect x="31" y="24" width="1" height="1" fill="#2b1a0c"/><rect x="32" y="24" width="1" height="1" fill="#d9a441"/><rect x="33" y="24" width="1" height="1" fill="#f2d183"/><rect x="34" y="24" width="1" height="1" fill="#7d4f1e"/><rect x="35" y="24" width="1" height="1" fill="#2b1a0c"/><rect x="12" y="25" width="1" height="1" fill="#2b1a0c"/><rect x="13" y="25" width="1" height="1" fill="#d9a441"/><rect x="14" y="25" width="1" height="1" fill="#f2d183"/><rect x="15" y="25" width="2" height="1" fill="#d9a441"/><rect x="17" y="25" width="1" height="1" fill="#7d4f1e"/><rect x="18" y="25" width="1" height="1" fill="#2b1a0c"/><rect x="21" y="25" width="2" height="1" fill="#2b1a0c"/><rect x="23" y="25" width="1" height="1" fill="#d9a441"/><rect x="24" y="25" width="1" height="1" fill="#f2d183"/><rect x="25" y="25" width="1" height="1" fill="#7d4f1e"/><rect x="26" y="25" width="2" height="1" fill="#2b1a0c"/><rect x="31" y="25" width="1" height="1" fill="#2b1a0c"/><rect x="32" y="25" width="1" height="1" fill="#d9a441"/><rect x="33" y="25" width="1" height="1" fill="#f2d183"/><rect x="34" y="25" width="1" height="1" fill="#7d4f1e"/><rect x="35" y="25" width="1" height="1" fill="#2b1a0c"/><rect x="12" y="26" width="1" height="1" fill="#2b1a0c"/><rect x="13" y="26" width="1" height="1" fill="#d9a441"/><rect x="14" y="26" width="1" height="1" fill="#f2d183"/><rect x="15" y="26" width="2" height="1" fill="#d9a441"/><rect x="17" y="26" width="1" height="1" fill="#7d4f1e"/><rect x="18" y="26" width="1" height="1" fill="#2b1a0c"/><rect x="21" y="26" width="1" height="1" fill="#2b1a0c"/><rect x="22" y="26" width="1" height="1" fill="#d9a441"/><rect x="23" y="26" width="1" height="1" fill="#f2d183"/><rect x="24" y="26" width="2" height="1" fill="#d9a441"/><rect x="26" y="26" width="1" height="1" fill="#7d4f1e"/><rect x="27" y="26" width="1" height="1" fill="#2b1a0c"/><rect x="31" y="26" width="1" height="1" fill="#2b1a0c"/><rect x="32" y="26" width="1" height="1" fill="#d9a441"/><rect x="33" y="26" width="1" height="1" fill="#f2d183"/><rect x="34" y="26" width="1" height="1" fill="#7d4f1e"/><rect x="35" y="26" width="1" height="1" fill="#2b1a0c"/><rect x="12" y="27" width="1" height="1" fill="#2b1a0c"/><rect x="13" y="27" width="1" height="1" fill="#d9a441"/><rect x="14" y="27" width="1" height="1" fill="#f2d183"/><rect x="15" y="27" width="2" height="1" fill="#d9a441"/><rect x="17" y="27" width="1" height="1" fill="#7d4f1e"/><rect x="18" y="27" width="1" height="1" fill="#2b1a0c"/><rect x="21" y="27" width="1" height="1" fill="#2b1a0c"/><rect x="22" y="27" width="1" height="1" fill="#d9a441"/><rect x="23" y="27" width="1" height="1" fill="#f2d183"/><rect x="24" y="27" width="2" height="1" fill="#d9a441"/><rect x="26" y="27" width="1" height="1" fill="#7d4f1e"/><rect x="27" y="27" width="1" height="1" fill="#2b1a0c"/><rect x="31" y="27" width="1" height="1" fill="#2b1a0c"/><rect x="32" y="27" width="1" height="1" fill="#d9a441"/><rect x="33" y="27" width="1" height="1" fill="#f2d183"/><rect x="34" y="27" width="1" height="1" fill="#7d4f1e"/><rect x="35" y="27" width="1" height="1" fill="#2b1a0c"/><rect x="12" y="28" width="1" height="1" fill="#2b1a0c"/><rect x="13" y="28" width="1" height="1" fill="#d9a441"/><rect x="14" y="28" width="1" height="1" fill="#f2d183"/><rect x="15" y="28" width="2" height="1" fill="#d9a441"/><rect x="17" y="28" width="1" height="1" fill="#7d4f1e"/><rect x="18" y="28" width="1" height="1" fill="#2b1a0c"/><rect x="21" y="28" width="1" height="1" fill="#2b1a0c"/><rect x="22" y="28" width="1" height="1" fill="#d9a441"/><rect x="23" y="28" width="1" height="1" fill="#f2d183"/><rect x="24" y="28" width="2" height="1" fill="#d9a441"/><rect x="26" y="28" width="1" height="1" fill="#7d4f1e"/><rect x="27" y="28" width="1" height="1" fill="#2b1a0c"/><rect x="30" y="28" width="2" height="1" fill="#2b1a0c"/><rect x="32" y="28" width="1" height="1" fill="#d9a441"/><rect x="33" y="28" width="1" height="1" fill="#f2d183"/><rect x="34" y="28" width="1" height="1" fill="#7d4f1e"/><rect x="35" y="28" width="2" height="1" fill="#2b1a0c"/><rect x="12" y="29" width="1" height="1" fill="#2b1a0c"/><rect x="13" y="29" width="1" height="1" fill="#d9a441"/><rect x="14" y="29" width="1" height="1" fill="#f2d183"/><rect x="15" y="29" width="2" height="1" fill="#d9a441"/><rect x="17" y="29" width="1" height="1" fill="#7d4f1e"/><rect x="18" y="29" width="1" height="1" fill="#2b1a0c"/><rect x="21" y="29" width="1" height="1" fill="#2b1a0c"/><rect x="22" y="29" width="1" height="1" fill="#d9a441"/><rect x="23" y="29" width="1" height="1" fill="#f2d183"/><rect x="24" y="29" width="2" height="1" fill="#d9a441"/><rect x="26" y="29" width="1" height="1" fill="#7d4f1e"/><rect x="27" y="29" width="1" height="1" fill="#2b1a0c"/><rect x="30" y="29" width="1" height="1" fill="#2b1a0c"/><rect x="31" y="29" width="1" height="1" fill="#d9a441"/><rect x="32" y="29" width="1" height="1" fill="#f2d183"/><rect x="33" y="29" width="2" height="1" fill="#d9a441"/><rect x="35" y="29" width="1" height="1" fill="#7d4f1e"/><rect x="36" y="29" width="1" height="1" fill="#2b1a0c"/><rect x="12" y="30" width="1" height="1" fill="#2b1a0c"/><rect x="13" y="30" width="1" height="1" fill="#d9a441"/><rect x="14" y="30" width="1" height="1" fill="#f2d183"/><rect x="15" y="30" width="2" height="1" fill="#d9a441"/><rect x="17" y="30" width="1" height="1" fill="#7d4f1e"/><rect x="18" y="30" width="1" height="1" fill="#2b1a0c"/><rect x="21" y="30" width="1" height="1" fill="#2b1a0c"/><rect x="22" y="30" width="1" height="1" fill="#d9a441"/><rect x="23" y="30" width="1" height="1" fill="#f2d183"/><rect x="24" y="30" width="2" height="1" fill="#d9a441"/><rect x="26" y="30" width="1" height="1" fill="#7d4f1e"/><rect x="27" y="30" width="1" height="1" fill="#2b1a0c"/><rect x="30" y="30" width="1" height="1" fill="#2b1a0c"/><rect x="31" y="30" width="1" height="1" fill="#d9a441"/><rect x="32" y="30" width="1" height="1" fill="#f2d183"/><rect x="33" y="30" width="2" height="1" fill="#d9a441"/><rect x="35" y="30" width="1" height="1" fill="#7d4f1e"/><rect x="36" y="30" width="1" height="1" fill="#2b1a0c"/><rect x="12" y="31" width="1" height="1" fill="#2b1a0c"/><rect x="13" y="31" width="1" height="1" fill="#d9a441"/><rect x="14" y="31" width="1" height="1" fill="#f2d183"/><rect x="15" y="31" width="2" height="1" fill="#d9a441"/><rect x="17" y="31" width="1" height="1" fill="#7d4f1e"/><rect x="18" y="31" width="1" height="1" fill="#2b1a0c"/><rect x="21" y="31" width="1" height="1" fill="#2b1a0c"/><rect x="22" y="31" width="1" height="1" fill="#d9a441"/><rect x="23" y="31" width="1" height="1" fill="#f2d183"/><rect x="24" y="31" width="2" height="1" fill="#d9a441"/><rect x="26" y="31" width="1" height="1" fill="#7d4f1e"/><rect x="27" y="31" width="1" height="1" fill="#2b1a0c"/><rect x="30" y="31" width="1" height="1" fill="#2b1a0c"/><rect x="31" y="31" width="1" height="1" fill="#d9a441"/><rect x="32" y="31" width="1" height="1" fill="#f2d183"/><rect x="33" y="31" width="2" height="1" fill="#d9a441"/><rect x="35" y="31" width="1" height="1" fill="#7d4f1e"/><rect x="36" y="31" width="1" height="1" fill="#2b1a0c"/><rect x="12" y="32" width="1" height="1" fill="#2b1a0c"/><rect x="13" y="32" width="1" height="1" fill="#d9a441"/><rect x="14" y="32" width="1" height="1" fill="#f2d183"/><rect x="15" y="32" width="2" height="1" fill="#d9a441"/><rect x="17" y="32" width="1" height="1" fill="#7d4f1e"/><rect x="18" y="32" width="1" height="1" fill="#2b1a0c"/><rect x="21" y="32" width="1" height="1" fill="#2b1a0c"/><rect x="22" y="32" width="1" height="1" fill="#d9a441"/><rect x="23" y="32" width="1" height="1" fill="#f2d183"/><rect x="24" y="32" width="2" height="1" fill="#d9a441"/><rect x="26" y="32" width="1" height="1" fill="#7d4f1e"/><rect x="27" y="32" width="1" height="1" fill="#2b1a0c"/><rect x="30" y="32" width="1" height="1" fill="#2b1a0c"/><rect x="31" y="32" width="1" height="1" fill="#d9a441"/><rect x="32" y="32" width="1" height="1" fill="#f2d183"/><rect x="33" y="32" width="2" height="1" fill="#d9a441"/><rect x="35" y="32" width="1" height="1" fill="#7d4f1e"/><rect x="36" y="32" width="1" height="1" fill="#2b1a0c"/><rect x="12" y="33" width="2" height="1" fill="#2b1a0c"/><rect x="14" y="33" width="1" height="1" fill="#d9a441"/><rect x="15" y="33" width="1" height="1" fill="#f2d183"/><rect x="16" y="33" width="1" height="1" fill="#7d4f1e"/><rect x="17" y="33" width="2" height="1" fill="#2b1a0c"/><rect x="21" y="33" width="1" height="1" fill="#2b1a0c"/><rect x="22" y="33" width="1" height="1" fill="#d9a441"/><rect x="23" y="33" width="1" height="1" fill="#f2d183"/><rect x="24" y="33" width="2" height="1" fill="#d9a441"/><rect x="26" y="33" width="1" height="1" fill="#7d4f1e"/><rect x="27" y="33" width="1" height="1" fill="#2b1a0c"/><rect x="30" y="33" width="1" height="1" fill="#2b1a0c"/><rect x="31" y="33" width="1" height="1" fill="#d9a441"/><rect x="32" y="33" width="1" height="1" fill="#f2d183"/><rect x="33" y="33" width="2" height="1" fill="#d9a441"/><rect x="35" y="33" width="1" height="1" fill="#7d4f1e"/><rect x="36" y="33" width="1" height="1" fill="#2b1a0c"/><rect x="13" y="34" width="5" height="1" fill="#2b1a0c"/><rect x="21" y="34" width="1" height="1" fill="#2b1a0c"/><rect x="22" y="34" width="1" height="1" fill="#d9a441"/><rect x="23" y="34" width="1" height="1" fill="#f2d183"/><rect x="24" y="34" width="2" height="1" fill="#d9a441"/><rect x="26" y="34" width="1" height="1" fill="#7d4f1e"/><rect x="27" y="34" width="1" height="1" fill="#2b1a0c"/><rect x="30" y="34" width="1" height="1" fill="#2b1a0c"/><rect x="31" y="34" width="1" height="1" fill="#d9a441"/><rect x="32" y="34" width="1" height="1" fill="#f2d183"/><rect x="33" y="34" width="2" height="1" fill="#d9a441"/><rect x="35" y="34" width="1" height="1" fill="#7d4f1e"/><rect x="36" y="34" width="1" height="1" fill="#2b1a0c"/><rect x="21" y="35" width="1" height="1" fill="#2b1a0c"/><rect x="22" y="35" width="1" height="1" fill="#d9a441"/><rect x="23" y="35" width="1" height="1" fill="#f2d183"/><rect x="24" y="35" width="2" height="1" fill="#d9a441"/><rect x="26" y="35" width="1" height="1" fill="#7d4f1e"/><rect x="27" y="35" width="1" height="1" fill="#2b1a0c"/><rect x="30" y="35" width="1" height="1" fill="#2b1a0c"/><rect x="31" y="35" width="1" height="1" fill="#d9a441"/><rect x="32" y="35" width="1" height="1" fill="#f2d183"/><rect x="33" y="35" width="2" height="1" fill="#d9a441"/><rect x="35" y="35" width="1" height="1" fill="#7d4f1e"/><rect x="36" y="35" width="1" height="1" fill="#2b1a0c"/><rect x="21" y="36" width="2" height="1" fill="#2b1a0c"/><rect x="23" y="36" width="1" height="1" fill="#d9a441"/><rect x="24" y="36" width="1" height="1" fill="#f2d183"/><rect x="25" y="36" width="1" height="1" fill="#7d4f1e"/><rect x="26" y="36" width="2" height="1" fill="#2b1a0c"/><rect x="30" y="36" width="1" height="1" fill="#2b1a0c"/><rect x="31" y="36" width="1" height="1" fill="#d9a441"/><rect x="32" y="36" width="1" height="1" fill="#f2d183"/><rect x="33" y="36" width="2" height="1" fill="#d9a441"/><rect x="35" y="36" width="1" height="1" fill="#7d4f1e"/><rect x="36" y="36" width="1" height="1" fill="#2b1a0c"/><rect x="22" y="37" width="5" height="1" fill="#2b1a0c"/><rect x="30" y="37" width="1" height="1" fill="#2b1a0c"/><rect x="31" y="37" width="1" height="1" fill="#d9a441"/><rect x="32" y="37" width="1" height="1" fill="#f2d183"/><rect x="33" y="37" width="2" height="1" fill="#d9a441"/><rect x="35" y="37" width="1" height="1" fill="#7d4f1e"/><rect x="36" y="37" width="1" height="1" fill="#2b1a0c"/><rect x="30" y="38" width="1" height="1" fill="#2b1a0c"/><rect x="31" y="38" width="1" height="1" fill="#d9a441"/><rect x="32" y="38" width="1" height="1" fill="#f2d183"/><rect x="33" y="38" width="2" height="1" fill="#d9a441"/><rect x="35" y="38" width="1" height="1" fill="#7d4f1e"/><rect x="36" y="38" width="1" height="1" fill="#2b1a0c"/><rect x="30" y="39" width="2" height="1" fill="#2b1a0c"/><rect x="32" y="39" width="1" height="1" fill="#d9a441"/><rect x="33" y="39" width="1" height="1" fill="#f2d183"/><rect x="34" y="39" width="1" height="1" fill="#7d4f1e"/><rect x="35" y="39" width="2" height="1" fill="#2b1a0c"/><rect x="31" y="40" width="5" height="1" fill="#2b1a0c"/></svg>
